# xmcd
#
# Track frame offsets:
#	150
#	13697
#	33167
#	52078
#	63465
#	77592
#	93198
#	106630
#	121308
#	133182
#	144268
#	161395
#	173953
#	188687
#	199434
#	218301
#	231224
#	244014
#	257336
#	275185
#	288398
#	299021
#	316634
#
# Disc length: 4379 seconds
#
# Revision: 1
# Processed by: cddbd v1.5.2PL0 Copyright (c) Steve Scherf et al.
# Submitted via: audiograbber 1.83.01
#
DISCID=43111917
DTITLE=Aus Böhmen kommt die Musik - CD 3 - Böhmische Musikante unterwegs
DYEAR=1900
DGENRE=Polka
TTITLE0=Wenn die Böhmen kommen
TTITLE1=Im Rosengarten
TTITLE2=Polkafest in Oberkrain
TTITLE3=Heut ist mein Herz noch frei
TTITLE4=Ich reite durch die Nacht
TTITLE5=Wer schaffen will, muss fröhlich sein
TTITLE6=Grüße aus dem Böhmerland
TTITLE7=Glückliche Liebe - glückliches Leben
TTITLE8=Blasmusik aus Egerland
TTITLE9=Im Märchenwald
TTITLE10=Musik macht Feiern richtig schön
TTITLE11=Musikanten Polka
TTITLE12=Ein klarer Sommermorgen
TTITLE13=Wenn mein Schatz nach Hause kommt
TTITLE14=Nach des Tages Last und Mühn
TTITLE15=Böhmische Freunde, Marsch-Polka
TTITLE16=Melodie und Harmonie
TTITLE17=Fuhrmannslied
TTITLE18=Sing mit in Oberkrain
TTITLE19=Musikanten-Polka
TTITLE20=Schneewalzer
TTITLE21=Echt Böhmisch
TTITLE22=Bis bald, auf Wiedersehn
EXTD=Readers Digest Edition\n
EXTT0=
EXTT1=
EXTT2=
EXTT3=
EXTT4=
EXTT5=
EXTT6=
EXTT7=
EXTT8=
EXTT9=
EXTT10=
EXTT11=
EXTT12=
EXTT13=
EXTT14=
EXTT15=
EXTT16=
EXTT17=
EXTT18=
EXTT19=
EXTT20=
EXTT21=
EXTT22=
PLAYORDER=
